<svg width="48" height="64" viewBox="0 0 48 64" fill="none" xmlns="http://www.w3.org/2000/svg">
<path d="M23.2627 0.0110693C10.1263 0.404822 0 11.8649 0 25.0063V57.9965C0 59.779 2.15377 60.6703 3.41378 59.4103L6.5288 57.094C7.36131 56.4753 8.52882 56.5953 9.21757 57.3703L14.5864 63.4141C15.3676 64.1953 16.6339 64.1953 17.4151 63.4141L22.5052 57.6828C23.3014 56.7865 24.7002 56.7865 25.4952 57.6828L30.5852 63.4141C31.3665 64.1953 32.6327 64.1953 33.414 63.4141L38.7828 57.3703C39.4716 56.5953 40.6391 56.474 41.4716 57.094L44.5866 59.4103C45.8466 60.6703 48.0004 59.7778 48.0004 57.9965V24C48.0004 10.4999 36.854 -0.396434 23.2627 0.0110693ZM16.0001 28C13.7914 28 12.0001 26.2088 12.0001 24C12.0001 21.7912 13.7914 20 16.0001 20C18.2089 20 20.0002 21.7912 20.0002 24C20.0002 26.2088 18.2089 28 16.0001 28ZM32.0002 28C29.7915 28 28.0002 26.2088 28.0002 24C28.0002 21.7912 29.7915 20 32.0002 20C34.209 20 36.0003 21.7912 36.0003 24C36.0003 26.2088 34.209 28 32.0002 28Z" fill="#6A0DAD"/>
</svg>
