<svg width="64" height="64" viewBox="0 0 64 64" fill="none" xmlns="http://www.w3.org/2000/svg">
<rect width="64" height="64" rx="16" fill="#0453F4"/>
<circle cx="32" cy="32" r="23" fill="white"/>
<path d="M31.6313 16.0055C25.0631 16.2024 20 21.9324 20 28.503V44.998C20 45.8893 21.0769 46.3349 21.7069 45.7049L23.2644 44.5468C23.6806 44.2374 24.2644 44.2974 24.6087 44.6849L27.2931 47.7068C27.6838 48.0974 28.3169 48.0974 28.7075 47.7068L31.2525 44.8412C31.6506 44.393 32.35 44.393 32.7475 44.8412L35.2925 47.7068C35.6831 48.0974 36.3162 48.0974 36.7069 47.7068L39.3913 44.6849C39.7356 44.2974 40.3194 44.2368 40.7356 44.5468L42.2931 45.7049C42.9231 46.3349 44 45.8887 44 44.998V27.9999C44 21.2499 38.4269 15.8018 31.6313 16.0055ZM28 29.9999C26.8956 29.9999 26 29.1043 26 27.9999C26 26.8955 26.8956 25.9999 28 25.9999C29.1044 25.9999 30 26.8955 30 27.9999C30 29.1043 29.1044 29.9999 28 29.9999ZM36 29.9999C34.8956 29.9999 34 29.1043 34 27.9999C34 26.8955 34.8956 25.9999 36 25.9999C37.1044 25.9999 38 26.8955 38 27.9999C38 29.1043 37.1044 29.9999 36 29.9999Z" fill="#0453F4"/>
</svg>
