<svg width="296" height="64" viewBox="0 0 296 64" fill="none" xmlns="http://www.w3.org/2000/svg">
<path d="M108.224 13.3279H117.248V57.9999H108.224V38.8639H89.024V57.9999H80V13.3279H89.024V31.9519H108.224V13.3279Z" fill="#44444F"/>
<path d="M142.619 50.8959C145.136 50.8959 147.291 49.9786 149.083 48.1439C150.918 46.2666 151.835 43.6426 151.835 40.2719C151.835 36.8586 150.939 34.2346 149.147 32.3999C147.355 30.5652 145.179 29.6479 142.619 29.6479C140.102 29.6479 137.968 30.5652 136.219 32.3999C134.47 34.2346 133.595 36.8586 133.595 40.2719C133.595 43.6852 134.47 46.3092 136.219 48.1439C137.968 49.9786 140.102 50.8959 142.619 50.8959ZM129.627 53.4559C126.171 50.0852 124.443 45.6692 124.443 40.2079C124.443 34.7466 126.192 30.3519 129.691 27.0239C133.19 23.6959 137.52 22.0319 142.683 22.0319C147.888 22.0319 152.24 23.6959 155.739 27.0239C159.238 30.3519 160.987 34.7466 160.987 40.2079C160.987 45.6692 159.216 50.0852 155.675 53.4559C152.176 56.8266 147.824 58.5119 142.619 58.5119C137.414 58.5119 133.083 56.8266 129.627 53.4559Z" fill="#44444F"/>
<path d="M168.125 57.9999V10.6399H177.149V57.9999H168.125Z" fill="#44444F"/>
<path d="M186.75 57.9999V10.6399H195.774V57.9999H186.75Z" fill="#44444F"/>
<path d="M221.119 50.8959C223.636 50.8959 225.791 49.9786 227.583 48.1439C229.418 46.2666 230.335 43.6426 230.335 40.2719C230.335 36.8586 229.439 34.2346 227.647 32.3999C225.855 30.5652 223.679 29.6479 221.119 29.6479C218.602 29.6479 216.468 30.5652 214.719 32.3999C212.97 34.2346 212.095 36.8586 212.095 40.2719C212.095 43.6852 212.97 46.3092 214.719 48.1439C216.468 49.9786 218.602 50.8959 221.119 50.8959ZM208.127 53.4559C204.671 50.0852 202.943 45.6692 202.943 40.2079C202.943 34.7466 204.692 30.3519 208.191 27.0239C211.69 23.6959 216.02 22.0319 221.183 22.0319C226.388 22.0319 230.74 23.6959 234.239 27.0239C237.738 30.3519 239.487 34.7466 239.487 40.2079C239.487 45.6692 237.716 50.0852 234.175 53.4559C230.676 56.8266 226.324 58.5119 221.119 58.5119C215.914 58.5119 211.583 56.8266 208.127 53.4559Z" fill="#44444F"/>
<path d="M286.817 22.5439H295.457L284.577 57.9999H274.977L268.897 34.1919L262.753 57.9999H253.153L242.273 22.5439H251.361L257.889 49.4879L264.417 22.5439H273.889L280.289 49.4239L286.817 22.5439Z" fill="#44444F"/>
<rect width="64" height="64" rx="16" fill="#0453F4"/>
<circle cx="32" cy="32" r="23" fill="white"/>
<path d="M31.6313 16.0055C25.0631 16.2024 20 21.9324 20 28.503V44.998C20 45.8893 21.0769 46.3349 21.7069 45.7049L23.2644 44.5468C23.6806 44.2374 24.2644 44.2974 24.6087 44.6849L27.2931 47.7068C27.6838 48.0974 28.3169 48.0974 28.7075 47.7068L31.2525 44.8412C31.6506 44.393 32.35 44.393 32.7475 44.8412L35.2925 47.7068C35.6831 48.0974 36.3162 48.0974 36.7069 47.7068L39.3913 44.6849C39.7356 44.2974 40.3194 44.2368 40.7356 44.5468L42.2931 45.7049C42.9231 46.3349 44 45.8887 44 44.998V27.9999C44 21.2499 38.4269 15.8018 31.6313 16.0055ZM28 29.9999C26.8956 29.9999 26 29.1043 26 27.9999C26 26.8955 26.8956 25.9999 28 25.9999C29.1044 25.9999 30 26.8955 30 27.9999C30 29.1043 29.1044 29.9999 28 29.9999ZM36 29.9999C34.8956 29.9999 34 29.1043 34 27.9999C34 26.8955 34.8956 25.9999 36 25.9999C37.1044 25.9999 38 26.8955 38 27.9999C38 29.1043 37.1044 29.9999 36 29.9999Z" fill="#0453F4"/>
</svg>
