<svg width="284" height="64" viewBox="0 0 284 64" fill="none" xmlns="http://www.w3.org/2000/svg">
<path d="M96.224 10.7481H105.248V55.4201H96.224V36.2841H77.024V55.4201H68V10.7481H77.024V29.3721H96.224V10.7481Z" fill="#44444F"/>
<path d="M130.619 48.3161C133.136 48.3161 135.291 47.3987 137.083 45.5641C138.918 43.6867 139.835 41.0627 139.835 37.6921C139.835 34.2787 138.939 31.6547 137.147 29.8201C135.355 27.9854 133.179 27.0681 130.619 27.0681C128.102 27.0681 125.968 27.9854 124.219 29.8201C122.47 31.6547 121.595 34.2787 121.595 37.6921C121.595 41.1054 122.47 43.7294 124.219 45.5641C125.968 47.3987 128.102 48.3161 130.619 48.3161ZM117.627 50.8761C114.171 47.5054 112.443 43.0894 112.443 37.6281C112.443 32.1667 114.192 27.7721 117.691 24.4441C121.19 21.1161 125.52 19.4521 130.683 19.4521C135.888 19.4521 140.24 21.1161 143.739 24.4441C147.238 27.7721 148.987 32.1667 148.987 37.6281C148.987 43.0894 147.216 47.5054 143.675 50.8761C140.176 54.2467 135.824 55.9321 130.619 55.9321C125.414 55.9321 121.083 54.2467 117.627 50.8761Z" fill="#44444F"/>
<path d="M156.125 55.4201V8.06006H165.149V55.4201H156.125Z" fill="#44444F"/>
<path d="M174.75 55.4201V8.06006H183.774V55.4201H174.75Z" fill="#44444F"/>
<path d="M209.119 48.3161C211.636 48.3161 213.791 47.3987 215.583 45.5641C217.418 43.6867 218.335 41.0627 218.335 37.6921C218.335 34.2787 217.439 31.6547 215.647 29.8201C213.855 27.9854 211.679 27.0681 209.119 27.0681C206.602 27.0681 204.468 27.9854 202.719 29.8201C200.97 31.6547 200.095 34.2787 200.095 37.6921C200.095 41.1054 200.97 43.7294 202.719 45.5641C204.468 47.3987 206.602 48.3161 209.119 48.3161ZM196.127 50.8761C192.671 47.5054 190.943 43.0894 190.943 37.6281C190.943 32.1667 192.692 27.7721 196.191 24.4441C199.69 21.1161 204.02 19.4521 209.183 19.4521C214.388 19.4521 218.74 21.1161 222.239 24.4441C225.738 27.7721 227.487 32.1667 227.487 37.6281C227.487 43.0894 225.716 47.5054 222.175 50.8761C218.676 54.2467 214.324 55.9321 209.119 55.9321C203.914 55.9321 199.583 54.2467 196.127 50.8761Z" fill="#44444F"/>
<path d="M274.817 19.9641H283.457L272.577 55.4201H262.977L256.897 31.6121L250.753 55.4201H241.153L230.273 19.9641H239.361L245.889 46.9081L252.417 19.9641H261.889L268.289 46.8441L274.817 19.9641Z" fill="#44444F"/>
<path d="M23.2627 0.0110693C10.1263 0.404822 0 11.8649 0 25.0063V57.9965C0 59.779 2.15377 60.6703 3.41378 59.4103L6.5288 57.094C7.36131 56.4753 8.52882 56.5953 9.21757 57.3703L14.5864 63.4141C15.3676 64.1953 16.6339 64.1953 17.4151 63.4141L22.5052 57.6828C23.3014 56.7865 24.7002 56.7865 25.4952 57.6828L30.5852 63.4141C31.3665 64.1953 32.6327 64.1953 33.414 63.4141L38.7828 57.3703C39.4716 56.5953 40.6391 56.474 41.4716 57.094L44.5866 59.4103C45.8466 60.6703 48.0004 59.7778 48.0004 57.9965V24C48.0004 10.4999 36.854 -0.396434 23.2627 0.0110693ZM16.0001 28C13.7914 28 12.0001 26.2088 12.0001 24C12.0001 21.7912 13.7914 20 16.0001 20C18.2089 20 20.0002 21.7912 20.0002 24C20.0002 26.2088 18.2089 28 16.0001 28ZM32.0002 28C29.7915 28 28.0002 26.2088 28.0002 24C28.0002 21.7912 29.7915 20 32.0002 20C34.209 20 36.0003 21.7912 36.0003 24C36.0003 26.2088 34.209 28 32.0002 28Z" fill="#6A0DAD"/>
</svg>
