<svg width="300" height="64" viewBox="0 0 300 64" fill="none" xmlns="http://www.w3.org/2000/svg">
<path d="M112.224 13.3279H121.248V57.9999H112.224V38.8639H93.024V57.9999H84V13.3279H93.024V31.9519H112.224V13.3279Z" fill="#44444F"/>
<path d="M146.619 50.8959C149.136 50.8959 151.291 49.9786 153.083 48.1439C154.918 46.2666 155.835 43.6426 155.835 40.2719C155.835 36.8586 154.939 34.2346 153.147 32.3999C151.355 30.5652 149.179 29.6479 146.619 29.6479C144.102 29.6479 141.968 30.5652 140.219 32.3999C138.47 34.2346 137.595 36.8586 137.595 40.2719C137.595 43.6852 138.47 46.3092 140.219 48.1439C141.968 49.9786 144.102 50.8959 146.619 50.8959ZM133.627 53.4559C130.171 50.0852 128.443 45.6692 128.443 40.2079C128.443 34.7466 130.192 30.3519 133.691 27.0239C137.19 23.6959 141.52 22.0319 146.683 22.0319C151.888 22.0319 156.24 23.6959 159.739 27.0239C163.238 30.3519 164.987 34.7466 164.987 40.2079C164.987 45.6692 163.216 50.0852 159.675 53.4559C156.176 56.8266 151.824 58.5119 146.619 58.5119C141.414 58.5119 137.083 56.8266 133.627 53.4559Z" fill="#44444F"/>
<path d="M172.125 57.9999V10.6399H181.149V57.9999H172.125Z" fill="#44444F"/>
<path d="M190.75 57.9999V10.6399H199.774V57.9999H190.75Z" fill="#44444F"/>
<path d="M225.119 50.8959C227.636 50.8959 229.791 49.9786 231.583 48.1439C233.418 46.2666 234.335 43.6426 234.335 40.2719C234.335 36.8586 233.439 34.2346 231.647 32.3999C229.855 30.5652 227.679 29.6479 225.119 29.6479C222.602 29.6479 220.468 30.5652 218.719 32.3999C216.97 34.2346 216.095 36.8586 216.095 40.2719C216.095 43.6852 216.97 46.3092 218.719 48.1439C220.468 49.9786 222.602 50.8959 225.119 50.8959ZM212.127 53.4559C208.671 50.0852 206.943 45.6692 206.943 40.2079C206.943 34.7466 208.692 30.3519 212.191 27.0239C215.69 23.6959 220.02 22.0319 225.183 22.0319C230.388 22.0319 234.74 23.6959 238.239 27.0239C241.738 30.3519 243.487 34.7466 243.487 40.2079C243.487 45.6692 241.716 50.0852 238.175 53.4559C234.676 56.8266 230.324 58.5119 225.119 58.5119C219.914 58.5119 215.583 56.8266 212.127 53.4559Z" fill="#44444F"/>
<path d="M290.817 22.5439H299.457L288.577 57.9999H278.977L272.897 34.1919L266.753 57.9999H257.153L246.273 22.5439H255.361L261.889 49.4879L268.417 22.5439H277.889L284.289 49.4239L290.817 22.5439Z" fill="#44444F"/>
<rect width="64" height="64" rx="16" fill="#0453F4"/>
<circle cx="32" cy="32" r="23" fill="white"/>
<path d="M31.6313 16.0055C25.0631 16.2024 20 21.9324 20 28.503V44.998C20 45.8893 21.0769 46.3349 21.7069 45.7049L23.2644 44.5468C23.6806 44.2374 24.2644 44.2974 24.6087 44.6849L27.2931 47.7068C27.6838 48.0974 28.3169 48.0974 28.7075 47.7068L31.2525 44.8412C31.6506 44.393 32.35 44.393 32.7475 44.8412L35.2925 47.7068C35.6831 48.0974 36.3162 48.0974 36.7069 47.7068L39.3913 44.6849C39.7356 44.2974 40.3194 44.2368 40.7356 44.5468L42.2931 45.7049C42.9231 46.3349 44 45.8887 44 44.998V27.9999C44 21.2499 38.4269 15.8018 31.6313 16.0055ZM28 29.9999C26.8956 29.9999 26 29.1043 26 27.9999C26 26.8955 26.8956 25.9999 28 25.9999C29.1044 25.9999 30 26.8955 30 27.9999C30 29.1043 29.1044 29.9999 28 29.9999ZM36 29.9999C34.8956 29.9999 34 29.1043 34 27.9999C34 26.8955 34.8956 25.9999 36 25.9999C37.1044 25.9999 38 26.8955 38 27.9999C38 29.1043 37.1044 29.9999 36 29.9999Z" fill="#0453F4"/>
</svg>
