<svg width="24" height="24" viewBox="0 0 24 24" fill="none" xmlns="http://www.w3.org/2000/svg">
<path d="M22.6755 24.0002C23.4069 24.0002 24 23.4071 24 22.6755V1.32462C24 0.592929 23.407 0 22.6755 0H1.32462C0.592929 0 0 0.592929 0 1.32462V22.6755C0 23.407 0.592836 24.0002 1.32462 24.0002H22.6755Z" fill="#3C5A99"/>
<path d="M16.56 24.0004V14.7062H19.6796L20.1467 11.0841H16.56V8.77158C16.56 7.72289 16.8512 7.00825 18.355 7.00825L20.273 7.00741V3.76776C19.9413 3.72362 18.8027 3.625 17.4781 3.625C14.7128 3.625 12.8195 5.31299 12.8195 8.41286V11.0841H9.69189V14.7062H12.8195V24.0004H16.56Z" fill="white"/>
</svg>
