<svg width="24" height="24" viewBox="0 0 24 24" fill="none" xmlns="http://www.w3.org/2000/svg">
<g clip-path="url(#clip0_1428_5118)">
<path d="M11.4162 0.0228782C9.8811 0.104644 8.47496 0.438617 7.12064 1.04207C3.83273 2.50695 1.37284 5.37105 0.423898 8.83862C0.125626 9.92806 -0.0114183 11.029 0.00700777 12.1899C0.0162208 12.7277 0.0392535 13.057 0.102593 13.5545C0.288006 15.0125 0.755568 16.4509 1.46152 17.7442C2.63388 19.8862 4.42006 21.616 6.59664 22.7158C7.31181 23.0762 8.06843 23.3676 8.81929 23.5714C8.9333 23.6025 9.04041 23.6313 9.05883 23.6359L9.08993 23.6428V19.6582V15.6735L7.85538 15.6712L6.61968 15.6678V13.8367V12.0056L7.85307 12.0021L9.08762 11.9998L9.09338 10.9311C9.09914 9.89466 9.10375 9.74495 9.1429 9.32806C9.33868 7.21827 10.1794 5.80983 11.6822 5.07278C12.3583 4.74111 13.1598 4.54649 14.1686 4.46818C14.4312 4.44745 15.1176 4.44054 15.3894 4.45551C16.0469 4.49236 16.7759 4.57758 17.2665 4.67547C17.3897 4.70081 17.5072 4.72499 17.5256 4.73075L17.5602 4.73996L17.5636 6.40867L17.5659 8.07624L17.4945 8.06933C17.1571 8.03478 15.9617 8.02096 15.6715 8.04745C14.916 8.11654 14.4208 8.30426 14.0707 8.65436C13.807 8.91808 13.6354 9.26472 13.5421 9.72307C13.4684 10.0812 13.4546 10.3311 13.4546 11.2536V11.9998H15.4124C16.4892 11.9998 17.3702 12.0045 17.3702 12.0091C17.3702 12.0148 17.2204 12.8371 17.0362 13.8367C16.8531 14.8363 16.7022 15.6586 16.7022 15.6643C16.7022 15.6689 15.9721 15.6735 15.0784 15.6735H13.4546V19.7906C13.4546 23.0762 13.4581 23.9077 13.4696 23.9077C13.5076 23.9077 13.9844 23.834 14.179 23.7983C16.0561 23.454 17.8262 22.6605 19.351 21.4789C19.9936 20.9814 20.6627 20.3377 21.189 19.7089C21.6646 19.1434 22.116 18.4858 22.488 17.8213C22.7149 17.416 23.0293 16.7434 23.1986 16.2977C24.0116 14.1695 24.2028 11.8513 23.749 9.601C23.2227 6.9914 21.7982 4.58449 19.754 2.85474C18.0899 1.44745 16.1103 0.528444 13.9786 0.17259C13.6181 0.112705 13.2139 0.0666402 12.7809 0.0343945C12.5702 0.0182716 11.6442 0.0102102 11.4162 0.0228782Z" fill="#0866FF"/>
</g>
<defs>
<clipPath id="clip0_1428_5118">
<rect width="24" height="24" fill="white" transform="translate(-0.00805664)"/>
</clipPath>
</defs>
</svg>
