<svg width="24" height="24" viewBox="0 0 24 24" fill="none" xmlns="http://www.w3.org/2000/svg">
<g clip-path="url(#clip0_1424_5139)">
<path d="M12.0163 0C5.35236 0 -0.00830078 5.5 -0.00830078 12.3C-0.00830078 17.75 3.43432 22.35 8.20481 23.975C8.79498 24.1 9.01629 23.7 9.01629 23.375C9.01629 23.1 8.9917 22.1 8.9917 21.1C5.64744 21.825 4.95891 19.625 4.95891 19.625C4.41793 18.2 3.63104 17.825 3.63104 17.825C2.54908 17.075 3.70481 17.075 3.70481 17.075C4.90973 17.15 5.54908 18.35 5.54908 18.35C6.63104 20.225 8.35236 19.7 9.04088 19.375C9.13924 18.575 9.45891 18.025 9.80317 17.725C7.14744 17.45 4.34416 16.375 4.34416 11.65C4.34416 10.3 4.81137 9.2 5.57367 8.35C5.45072 8.05 5.03268 6.775 5.69662 5.1C5.69662 5.1 6.70481 4.775 8.9917 6.375C9.95072 6.1 10.9835 5.975 11.9917 5.975C12.9999 5.975 14.0327 6.125 14.9917 6.375C17.2786 4.775 18.2868 5.1 18.2868 5.1C18.9507 6.8 18.5327 8.05 18.4097 8.35C19.1966 9.2 19.6392 10.3 19.6392 11.65C19.6392 16.375 16.836 17.425 14.1556 17.725C14.5983 18.1 14.9671 18.85 14.9671 20C14.9671 21.65 14.9425 22.975 14.9425 23.375C14.9425 23.7 15.1638 24.1 15.754 23.975C20.5491 22.35 23.9917 17.75 23.9917 12.3C24.0163 5.5 18.631 0 12.0163 0Z" fill="#1B1F24"/>
</g>
<defs>
<clipPath id="clip0_1424_5139">
<rect width="24" height="24" fill="white" transform="translate(-0.00830078)"/>
</clipPath>
</defs>
</svg>
