<svg width="32" height="24" viewBox="0 0 32 24" fill="none" xmlns="http://www.w3.org/2000/svg">
<path d="M2.18127 24.0002H7.2709V11.6397L0 6.18652V21.819C0 23.0259 0.977936 24.0002 2.18127 24.0002Z" fill="#4285F4"/>
<path d="M24.7212 24.0002H29.8108C31.0178 24.0002 31.9921 23.0223 31.9921 21.819V6.18652L24.7212 11.6397" fill="#34A853"/>
<path d="M24.7212 2.18746V11.6396L31.9921 6.18645V3.27809C31.9921 0.580589 28.9129 -0.957206 26.757 0.660569" fill="#FBBC04"/>
<path d="M7.271 11.6397V2.1875L15.9961 8.73131L24.7212 2.1875V11.6397L15.9961 18.1835" fill="#EA4335"/>
<path d="M0 3.27809V6.18645L7.2709 11.6396V2.18746L5.23505 0.660569C3.07559 -0.957206 0 0.580589 0 3.27809" fill="#C5221F"/>
</svg>
