<svg width="24" height="24" viewBox="0 0 24 24" fill="none" xmlns="http://www.w3.org/2000/svg">
<path d="M-0.00805664 1.71919C-0.00805664 0.77025 0.786381 0 1.76569 0H22.2182C23.1979 0 23.9919 0.77025 23.9919 1.71919V22.2811C23.9919 23.2303 23.1979 24 22.2182 24H1.76569C0.786475 24 -0.00805664 23.2304 -0.00805664 22.2814V1.71891V1.71919Z" fill="#0A66C2"/>
<path d="M7.285 20.0847V9.27985H3.69362V20.0847H7.28537H7.285ZM5.49006 7.80488C6.74218 7.80488 7.52171 6.9752 7.52171 5.93832C7.49828 4.87782 6.74218 4.07129 5.51387 4.07129C4.28471 4.07129 3.48193 4.87782 3.48193 5.93823C3.48193 6.9751 4.26118 7.80479 5.46653 7.80479H5.48978L5.49006 7.80488ZM9.27287 20.0847H12.864V14.0514C12.864 13.7289 12.8874 13.4056 12.9823 13.1753C13.2418 12.5298 13.8327 11.8616 14.825 11.8616C16.1242 11.8616 16.6442 12.8524 16.6442 14.305V20.0847H20.2352V13.8895C20.2352 10.5709 18.4637 9.02654 16.101 9.02654C14.1638 9.02654 13.313 10.1093 12.8403 10.8467H12.8642V9.28023H9.27306C9.31993 10.2939 9.27278 20.0851 9.27278 20.0851L9.27287 20.0847Z" fill="white"/>
</svg>
