<svg width="24" height="24" viewBox="0 0 24 24" fill="none" xmlns="http://www.w3.org/2000/svg">
<g clip-path="url(#clip0_1424_5115)">
<path d="M11.9919 24C18.6194 24 23.9919 18.6274 23.9919 12C23.9919 5.37258 18.6194 0 11.9919 0C5.36453 0 -0.00805664 5.37258 -0.00805664 12C-0.00805664 18.6274 5.36453 24 11.9919 24Z" fill="url(#paint0_linear_1424_5115)"/>
<path fill-rule="evenodd" clip-rule="evenodd" d="M5.42371 11.8735C8.92196 10.3493 11.2547 9.34452 12.4218 8.85905C15.7544 7.47294 16.4468 7.23216 16.8982 7.22421C16.9975 7.22246 17.2194 7.24706 17.3632 7.36372C17.4846 7.46223 17.518 7.5953 17.534 7.6887C17.55 7.78209 17.5699 7.99485 17.554 8.1611C17.3734 10.0586 16.592 14.6633 16.1945 16.7885C16.0263 17.6877 15.6951 17.9893 15.3744 18.0188C14.6775 18.0829 14.1484 17.5582 13.4734 17.1158C12.4173 16.4235 11.8206 15.9925 10.7954 15.3169C9.61066 14.5362 10.3787 14.1071 11.0539 13.4058C11.2306 13.2222 14.301 10.4295 14.3604 10.1761C14.3679 10.1444 14.3748 10.0263 14.3046 9.96397C14.2344 9.90161 14.1309 9.92293 14.0561 9.93989C13.9502 9.96394 12.263 11.0791 8.99446 13.2855C8.51555 13.6143 8.08176 13.7746 7.69311 13.7662C7.26465 13.7569 6.44046 13.5239 5.82776 13.3247C5.07626 13.0805 4.47898 12.9513 4.53099 12.5364C4.55808 12.3203 4.85565 12.0993 5.42371 11.8735Z" fill="white"/>
</g>
<defs>
<linearGradient id="paint0_linear_1424_5115" x1="1199.99" y1="0" x2="1199.99" y2="2382.2" gradientUnits="userSpaceOnUse">
<stop stop-color="#2AABEE"/>
<stop offset="1" stop-color="#229ED9"/>
</linearGradient>
<clipPath id="clip0_1424_5115">
<rect width="24" height="24" fill="white" transform="translate(-0.00805664)"/>
</clipPath>
</defs>
</svg>
