<svg width="30" height="24" viewBox="0 0 30 24" fill="none" xmlns="http://www.w3.org/2000/svg">
<path d="M28.9851 2.88306C28.0433 3.28837 27.0532 3.57061 26.0393 3.72279C26.5133 3.64153 27.2108 2.78825 27.4885 2.44288C27.9103 1.92191 28.2318 1.32719 28.4366 0.688921C28.4366 0.641517 28.484 0.573796 28.4366 0.539936C28.4127 0.526896 28.3859 0.520063 28.3587 0.520063C28.3315 0.520063 28.3047 0.526896 28.2808 0.539936C27.1798 1.13616 26.0081 1.59122 24.7932 1.89434C24.7509 1.90728 24.7058 1.90844 24.6629 1.8977C24.6199 1.88696 24.5807 1.86473 24.5494 1.8334C24.4549 1.7208 24.3531 1.61448 24.2447 1.51511C23.7492 1.07117 23.187 0.70782 22.5788 0.438355C21.7577 0.101499 20.8708 -0.0443865 19.9851 0.011717C19.1257 0.0659934 18.2866 0.296507 17.5201 0.688921C16.7652 1.10264 16.1018 1.66469 15.5697 2.3413C15.01 3.0377 14.6059 3.84589 14.3846 4.71151C14.2021 5.53489 14.1814 6.38589 14.3237 7.21717C14.3237 7.35938 14.3237 7.3797 14.2018 7.35938C9.3733 6.64832 5.41165 4.93499 2.17462 1.25777C2.03241 1.09524 1.95791 1.09524 1.84279 1.25777C0.434206 3.39774 1.11818 6.78376 2.87891 8.45645C3.11593 8.67993 3.35973 8.89663 3.61706 9.09979C2.80978 9.04248 2.02221 8.82371 1.30103 8.45645C1.16559 8.36841 1.09109 8.41582 1.08432 8.57835C1.06512 8.80367 1.06512 9.03022 1.08432 9.25555C1.22562 10.3354 1.65119 11.3584 2.31751 12.2198C2.98383 13.0813 3.86698 13.7503 4.87666 14.1585C5.1228 14.2639 5.37927 14.3434 5.6419 14.3955C4.89456 14.5427 4.12806 14.5655 3.37327 14.4632C3.21074 14.4294 3.14979 14.5174 3.21074 14.6732C4.20623 17.382 6.36651 18.2082 7.95117 18.6687C8.16787 18.7025 8.38458 18.7025 8.62837 18.7567C8.62837 18.7567 8.62837 18.7567 8.58774 18.7974C8.12047 19.6506 6.23107 20.2263 5.36425 20.5242C3.78208 21.0925 2.09519 21.3097 0.420661 21.1608C0.156552 21.1202 0.0956035 21.1269 0.0278831 21.1608C-0.0398373 21.1947 0.0278831 21.2691 0.102376 21.3369C0.440978 21.5603 0.779579 21.7567 1.13173 21.9464C2.18007 22.5182 3.28838 22.9724 4.43648 23.3008C10.3823 24.9396 17.0731 23.7342 21.5359 19.2985C25.0438 15.8177 26.2763 11.0163 26.2763 6.20813C26.2763 6.02529 26.4998 5.91693 26.6285 5.82213C27.5159 5.13063 28.2984 4.31399 28.9513 3.39774C29.0643 3.26116 29.1223 3.08726 29.1138 2.91015V2.91015C29.1138 2.80857 29.1138 2.82889 28.9851 2.88306Z" fill="#33CCFF"/>
</svg>
